<svg id="Layer_1" data-name="Layer 1" xmlns="http://www.w3.org/2000/svg" viewBox="0 0 101 101"><title>Artboard 2</title><path d="M83.12,85h-65a1.5,1.5,0,0,1-1.5-1.5c0-19,15.25-34.5,34-34.5s34,15.48,34,34.5A1.5,1.5,0,0,1,83.12,85ZM19.66,82H81.59c-.77-16.68-14.37-30-31-30S20.43,65.32,19.66,82Z"/><path d="M51,45A21,21,0,1,1,72,24,21,21,0,0,1,51,45ZM51,6A18,18,0,1,0,69,24,18,18,0,0,0,51,6Z"/><path d="M50.62,63.27A38.19,38.19,0,0,1,31,57.87a1.5,1.5,0,0,1,1.54-2.57,35.3,35.3,0,0,0,36.16,0,1.5,1.5,0,1,1,1.54,2.57A38.19,38.19,0,0,1,50.62,63.27Z"/><path d="M69.4,19.35A15.08,15.08,0,0,1,58,14.7a32.37,32.37,0,0,1-7.19,3c-6.48,1.77-12.27.86-16.75-2.63a1.5,1.5,0,0,1,1.84-2.37c9,7,21.49-1.09,21.61-1.18a1.5,1.5,0,0,1,2.1.44c.11.17,3,4.42,9.77,4.42a1.5,1.5,0,0,1,0,3Z"/></svg>